<?xml version="1.0" standalone="no"?>
<!DOCTYPE svg PUBLIC "-//W3C//DTD SVG 20010904//EN"
 "http://www.w3.org/TR/2001/REC-SVG-20010904/DTD/svg10.dtd">
<svg version="1.0" xmlns="http://www.w3.org/2000/svg"
 width="189.000000pt" height="189.000000pt" viewBox="0 0 189.000000 189.000000"
 preserveAspectRatio="xMidYMid meet">
<metadata>
Created by potrace 1.11, written by Peter Selinger 2001-2013
</metadata>
<g transform="translate(0.000000,189.000000) scale(0.100000,-0.100000)"
fill="#000000" stroke="none">
<path d="M132 1608 c3 -9 33 -14 91 -16 l87 -3 0 -654 0 -655 -90 0 c-73 0
-90 -3 -90 -15 0 -13 28 -15 195 -15 167 0 195 2 195 15 0 12 -17 15 -90 15
l-90 0 1 658 c0 416 4 650 10 637 5 -11 112 -312 238 -670 162 -460 234 -651
245 -653 9 -2 20 7 26 20 5 13 111 313 235 668 125 354 228 647 231 649 2 2 4
-291 4 -652 l0 -657 -90 0 c-73 0 -90 -3 -90 -15 0 -13 42 -15 315 -15 273 0
315 2 315 15 0 12 -16 15 -85 15 l-85 0 0 655 0 655 85 0 c69 0 85 3 85 15 0
13 -33 15 -239 15 l-239 0 -11 -32 c-166 -478 -326 -917 -331 -911 -4 4 -77
211 -163 458 -86 248 -159 458 -162 468 -7 16 -28 17 -257 17 -195 0 -249 -3
-246 -12z"/>
</g>
</svg>
